Coordinates
version=1
nRows=14
nColumns=36
inDegrees=yes

Units are S.I. units (second, meters, Newtons, ...)
If the header above contains a line with 'inDegrees', this indicates whether rotational values are in degrees (yes) or radians (no).

endheader
time	pelvis_tilt	pelvis_list	pelvis_rotation	pelvis_tx	pelvis_ty	pelvis_tz	hip_flexion_r	hip_adduction_r	hip_rotation_r	knee_angle_r	knee_angle_r_beta	ankle_angle_r	subtalar_angle_r	mtp_angle_r	hip_flexion_l	hip_adduction_l	hip_rotation_l	knee_angle_l	knee_angle_l_beta	ankle_angle_l	subtalar_angle_l	mtp_angle_l	lumbar_extension	lumbar_bending	lumbar_rotation	arm_flex_r	arm_add_r	arm_rot_r	elbow_flex_r	pro_sup_r	arm_flex_l	arm_add_l	arm_rot_l	elbow_flex_l	pro_sup_l
      1.30000000	      3.31817972	     -5.60214181	      8.53221984	      0.67005111	      0.96669157	     -0.34683643	     28.42255179	     -1.40477752	     -4.63129721	      2.59814986	      0.04534627	     -1.14466175	    -15.34892965	     -7.49999951	     -6.41626620	      3.03158077	     -1.07565820	      0.88794234	      0.01549752	     10.66325134	    -11.34367955	     -7.49999951	    -14.28771393	     -1.97911444	      1.53036857	     63.32611822	     15.36378649	     74.37734213	    117.58615378	     95.07830696	     40.47490862	      4.94752896	     55.15415207	    110.76364277	     74.91764600
      1.31666670	      3.35255133	     -5.66867929	      8.73781650	      0.66976399	      0.96518062	     -0.34681892	     28.20858558	     -1.42388692	     -4.68258006	      2.55768052	      0.04463995	     -1.08389864	    -15.39964030	     -7.49999973	     -6.55679755	      2.93116150	     -0.72089882	      0.75561041	      0.01318789	     10.36264918	    -11.32861786	     -7.49999973	    -14.08290197	     -1.88380793	      1.49654783	     63.21495169	     15.25764589	     74.22645612	    117.41379860	     94.79368949	     40.26921316	      4.57903773	     55.21339707	    110.36026843	     74.75437140
      1.33333330	      3.36011022	     -5.62942764	      8.63988269	      0.66969960	      0.96705908	     -0.34681314	     28.14105577	     -1.38484070	     -4.48743181	      2.45720738	      0.04288636	     -1.05381656	    -15.39937583	     -7.49999981	     -6.66547807	      2.98895330	     -0.57170621	      0.68371782	      0.01193313	     10.06338629	    -11.44099349	     -7.49999981	    -14.11263549	     -2.01961948	      1.15248275	     63.20995998	     15.39911503	     74.33438833	    117.29098184	     95.06969952	     40.16045555	      4.26488340	     54.83703489	    110.32301679	     74.74266155
      1.35000000	      3.35229021	     -5.55312036	      8.51726633	      0.66953182	      0.96713823	     -0.34650453	     28.02358539	     -1.32899685	     -4.46217976	      2.19296122	      0.03827439	     -0.95545546	    -15.05200580	     -7.49999986	     -6.64927963	      3.13749342	     -0.87745490	      0.62059401	      0.01083141	     10.08654368	    -11.46850013	     -7.49999986	    -14.18970208	     -2.22360642	      1.01163046	     63.23512286	     15.46455260	     74.43322015	    117.22420016	     94.98997792	     40.03378150	      4.13425301	     54.78425437	    109.66611984	     74.86684933
      1.36666670	      3.39311092	     -5.48962349	      8.27597742	      0.67356269	      0.96322906	     -0.34373805	     27.91417600	     -1.13558585	     -4.27781789	      2.03904036	      0.03558797	     -0.84930425	    -14.98463832	     -7.49999986	     -6.75843356	      3.21127860	     -1.19503888	      0.57164959	      0.00997717	     10.20636331	    -11.66668328	     -7.49999986	    -14.09869373	     -2.46149437	      0.86532264	     63.14724507	     15.80581623	     74.35302646	    117.16648778	     93.28902618	     39.96531808	      3.85130648	     54.22792346	    110.79299567	     74.14285887
      1.38333330	      3.44349821	     -5.42480070	      7.87528050	      0.67316960	      0.96566098	     -0.34323814	     27.74899569	     -0.86124006	     -4.07703536	      1.91554068	      0.03343249	     -0.81999782	    -14.74664105	     -7.49999986	     -6.85369644	      3.27410107	     -1.37884868	      0.57221273	      0.00998700	     10.34622871	    -11.89435352	     -7.49999986	    -14.09294251	     -2.80393906	      1.00200762	     62.84148801	     15.81373995	     74.46027237	    117.17771785	     93.34673550	     39.81418350	      3.63489297	     54.07776758	    110.95529103	     74.16937592
      1.40000000	      3.48661729	     -5.28889902	      7.82951288	      0.67330303	      0.96517338	     -0.34328672	     27.49565845	     -0.81499402	     -3.84225332	      1.64753284	      0.02875487	     -0.66421512	    -14.51098345	     -7.49999986	     -6.90041655	      3.35982089	     -1.42249375	      0.58446739	      0.01020088	     10.34901491	    -11.96422574	     -7.49999986	    -13.99791710	     -3.13924060	      1.03659607	     62.67516931	     15.80017844	     74.45884216	    117.09550639	     93.39633239	     39.84047495	      3.69816714	     53.88438840	    111.14069758	     74.19832942
      1.41666670	      3.65659462	     -5.20096247	      7.70449011	      0.67311387	      0.96585209	     -0.34304027	     27.18973228	     -0.71436324	     -3.99045525	      1.54521919	      0.02696916	     -0.34437009	    -13.81472248	     -7.49999987	     -7.08199045	      3.45702608	     -1.45689494	      0.59834079	      0.01044302	     10.09130191	    -12.29381947	     -7.49999987	    -14.02023686	     -3.33039076	      1.00477727	     62.21728735	     15.85612791	     74.21865147	    116.88731222	     95.73603850	     39.34578405	      3.32226611	     53.47293136	    110.69757746	     75.77185517
      1.43333330	      3.80389653	     -5.12409771	      7.50431711	      0.67353730	      0.96553163	     -0.34322399	     26.99505979	     -0.62629681	     -3.83435920	      1.48908003	      0.02598935	     -0.00094055	    -13.43146457	     -7.49999987	     -7.25631360	      3.55277433	     -1.53296636	      0.67147002	      0.01171936	     10.18761627	    -12.36463975	     -7.49999987	    -13.95491337	     -3.51808565	      1.02502129	     61.86994257	     15.72572242	     74.25603547	    116.77617946	     95.92314060	     39.16739556	      3.09422137	     53.09820725	    110.54874679	     75.67503148
      1.45000000	      3.98353869	     -5.05660251	      7.39745073	      0.67305468	      0.96790446	     -0.34272946	     26.73206287	     -0.57648016	     -3.79520334	      1.50204782	      0.02621568	      0.07228045	    -13.26893497	     -7.49999987	     -7.44091330	      3.59074637	     -1.61501048	      0.75495393	      0.01317643	     10.11444709	    -12.58411942	     -7.49999987	    -13.97419416	     -3.71611611	      1.11020173	     61.59398518	     15.65300825	     74.46449392	    116.79669939	     96.02787540	     39.15092022	      3.11031428	     52.78504568	    110.34783371	     75.92446113
      1.46666670	      4.19232962	     -4.86136732	      7.30661865	      0.66997946	      0.96680817	     -0.34082795	     26.46969466	     -0.62406643	     -3.73195136	      1.36905721	      0.02389456	      0.29751113	    -12.99773437	     -7.49999987	     -7.53338696	      3.76586230	     -1.71410982	      0.93884542	      0.01638594	     10.00447627	    -12.59992935	     -7.49999987	    -14.21525106	     -4.04814041	      1.22982398	     61.69344282	     15.60100275	     74.84929439	    116.70165209	     89.15940168	     39.58155380	      3.17773339	     52.74290223	    110.01239208	     71.73847932
      1.48333330	      4.13158922	     -4.64702311	      7.22358672	      0.67009016	      0.96676798	     -0.34063374	     26.45897022	     -0.67768227	     -3.53477672	      1.22916365	      0.02145295	      0.17469374	    -12.94331643	     -7.49999987	     -7.28808020	      3.97786825	     -1.38441375	      1.21831554	      0.02126362	      9.49709092	    -13.47069930	     -7.49999987	    -14.39504961	     -4.47398724	      1.09605444	     61.54679414	     15.59781414	     74.69867696	    116.63295369	     96.26969961	     39.46248253	      2.94164943	     52.87065543	    108.47090191	     75.51976584
      1.50000000	      4.21699741	     -4.51494165	      7.25332486	      0.67126724	      0.96466972	     -0.34596470	     26.28706639	     -0.82829745	     -3.40489717	      1.17518122	      0.02051078	      0.01179002	    -12.84821493	     -7.49999987	     -7.05522591	      4.17161232	     -1.29376697	      1.72147071	      0.03004533	      9.80677848	    -13.71771458	     -7.49999987	    -14.52129852	     -4.51608339	      0.94402558	     61.57930533	     15.55212495	     75.03219827	    116.64264738	     96.27046635	     39.33029770	      2.99942104	     52.99621124	    107.77713381	     75.51386047
      1.51666670	      4.20822762	     -4.45447063	      7.01704665	      0.67169860	      0.96113067	     -0.34586431	     26.30829726	     -0.77358712	     -3.07584788	      1.22347902	      0.02135374	     -0.23298317	    -13.11523509	     -7.49999987	     -6.63482922	      4.33826046	     -1.20812346	      2.49232254	      0.04349923	     10.16416059	    -14.08302086	     -7.49999987	    -14.60200704	     -4.50106343	      1.24090474	     61.91348873	     15.50701707	     75.17137389	    116.97247394	     96.12837148	     39.51893471	      3.39366975	     52.98477289	    107.80453773	     75.46797103
